PathFileType	4	(X/Y/Z)	OpenSim_Sub03_CSStiffKnee_Gyro.trc
DataRate	CameraRate	NumFrames	NumMarkers	Units	OrigDataRate	OrigDataStartFrame	OrigNumFrames
100	100	41	8	m	100	3183	3637
Frame#	Time	torso_imu_offset_imu	pelvis_imu_offset_imu	tibia_r_imu_offset_imu	femur_r_imu_offset_imu	tibia_l_imu_offset_imu	femur_l_imu_offset_imu	toes_r_imu_offset_imu	toes_l_imu_offset_imu
				X1	Y1	Z1	X2	Y2	Z2	X3	Y3	Z3	X4	Y4	Z4	X5	Y5	Z5	X6	Y6	Z6	X7	Y7	Z7	X8		Y8	Z8	

3183	31.82000000	-0.15997900	0.30786200	-0.24348000	-0.02820500	-0.10641400	-0.51753400	-0.66775100	-0.62334900	-2.28960600	0.13217600	0.97233100	1.42889200	-2.32123400	-0.28283000	2.03848500	0.41716000	-0.15603900	-0.10547100	0.78791200	-3.82429800	-2.65953500	-0.47845400	-0.09061700	0.26132000
3184	31.83000000	-0.13393100	0.31223800	-0.18499300	0.06457900	-0.13368600	-0.61654000	-0.62915000	-0.70167500	-2.32494400	0.16970200	0.86224800	1.62080700	-0.62152100	-0.78894600	2.12110000	-0.10076900	-0.33584200	-0.20112300	1.37387100	-4.40064900	-3.22976200	-0.19876200	-0.21988000	0.03740400
3185	31.84000000	-0.14090300	0.32109400	-0.19180500	0.07434400	-0.16870600	-0.47675300	-0.37670100	-0.77379400	-2.29544400	0.02915900	0.79365100	1.86378200	1.22548900	0.02932300	1.76398300	-0.81918800	-0.56398800	-0.04972000	1.72662100	-4.49871600	-3.57362900	-0.04427900	-0.27874700	0.00785500
3186	31.85000000	-0.15605000	0.32984200	-0.24532100	-0.03778000	-0.16343600	-0.30727300	0.13751100	-1.02903100	-2.28734500	-0.32374900	0.82741400	2.07569600	1.48451700	-0.16620000	1.78018400	-0.76866900	-0.46156300	0.31357500	1.56204400	-4.38752700	-3.70896400	0.04922100	-0.29039600	0.02074000
3187	31.86000000	-0.19712000	0.29877700	-0.28880800	-0.20200900	-0.11344800	-0.16280500	0.50195900	-1.18581800	-2.22836200	-0.73956200	0.81929700	2.21488200	0.14479600	-0.51883600	1.62178400	0.03980600	-0.21390200	0.62451500	1.01638400	-4.15230100	-3.68867500	-0.10008800	-0.25547400	0.13640800
3188	31.87000000	-0.24685400	0.26076400	-0.32383700	-0.36355500	-0.04331000	-0.06080600	0.65546700	-1.20497400	-2.13280900	-0.96995300	0.67870100	2.14840000	0.16923900	-0.29997800	1.12944700	0.94129100	0.09667200	0.82589900	0.80836100	-3.81961400	-3.76422100	-0.27522700	-0.23186400	0.24022000
3189	31.88000000	-0.29336900	0.21346900	-0.32615600	-0.47676300	0.03172800	0.03513700	0.35139300	-1.13502700	-1.91516300	-0.99224400	0.35868100	1.97321500	-0.31804200	-0.33804600	0.86920100	1.44014800	0.06743500	0.93842900	0.35305900	-3.76482300	-3.63178800	-0.20863100	-0.21082600	0.23220300
3190	31.89000000	-0.31092500	0.17210300	-0.29857900	-0.52768100	0.10675200	0.11331100	-0.12374500	-0.85413200	-1.75111900	-0.93077300	0.11251700	1.90914200	-0.30195600	-0.38180600	0.86659100	1.41688000	-0.04220800	0.95363600	-0.10881000	-1.82968300	-2.79450400	-0.15198500	-0.17275600	0.17675300
3191	31.90000000	-0.32161600	0.13051200	-0.25786000	-0.54471500	0.16177600	0.17499100	-1.15115100	-0.50798600	-1.51149300	-0.79234700	-0.05083600	1.84926700	0.22693300	-0.18733900	0.93636300	0.86263200	-0.10319900	0.98816900	-1.81553300	0.53506700	-1.37721200	-0.04651700	-0.18203000	0.11885100
3192	31.91000000	-0.31356200	0.08718800	-0.22765800	-0.52333600	0.17928700	0.20710800	-2.01903100	-0.28522700	-1.09541600	-0.55875500	-0.13689500	1.65107200	0.19905200	-0.21689000	0.73143500	0.09870200	-0.14500800	1.09017100	-1.91945000	1.03198400	-0.68315200	-0.05084400	-0.20498900	0.10518300
3193	31.92000000	-0.32745600	0.05403200	-0.17202700	-0.45849200	0.17052100	0.24999000	-2.84741400	-0.20899200	-0.41852400	-0.32404300	-0.16598000	1.43162300	-0.08246900	-0.11702200	0.57575500	-0.37998100	-0.19412000	1.20902300	-1.45579300	0.74530500	-0.24122200	-0.03686900	-0.20424600	0.08967600
3194	31.93000000	-0.35521200	0.02884400	-0.10291500	-0.38749000	0.16240100	0.32977400	-2.57692500	-0.28886100	0.14563200	-0.21961900	-0.15577300	1.28278900	-0.06624400	-0.10955500	0.48204700	-0.58070800	-0.23526600	1.27420300	-0.95321900	1.34231200	0.25149900	-0.04239600	-0.21882200	0.11398800
3195	31.94000000	-0.39117800	0.01341900	-0.04482600	-0.32001800	0.15518600	0.40107500	-1.04501500	-0.19136800	0.57554100	-0.11771200	-0.17209200	1.24244500	0.12423400	-0.03091900	0.39823100	-0.62998600	-0.21971800	1.29544500	-0.97838500	1.77232800	0.75340400	-0.06095900	-0.22898100	0.13320300
3196	31.95000000	-0.43751200	0.00864200	0.01069200	-0.26306300	0.13790500	0.43326500	-0.11499500	-0.18820800	0.89452300	0.02749000	-0.23590400	1.15204600	0.27661300	-0.05511800	0.42299800	-0.41425500	-0.15620500	1.28390700	-1.11838300	1.97448400	1.26333500	-0.06971800	-0.22845800	0.14718800
3197	31.96000000	-0.48300800	-0.02084400	0.07454500	-0.21741200	0.11850500	0.43906700	0.33011000	-0.10778600	1.30987800	0.28176100	-0.24482900	1.08241800	0.40223400	-0.01433300	0.38856200	-0.01538500	-0.11416200	1.25247400	-1.21558700	1.98315200	1.73010200	-0.05673600	-0.21980600	0.16106700
3198	31.97000000	-0.56227100	-0.04474600	0.09206700	-0.20438100	0.10901400	0.45019500	0.59817000	0.02535200	1.67793100	0.54305400	-0.25104400	1.20484100	0.28739600	-0.07294900	0.38397300	0.26544100	-0.07538300	1.23685600	-1.25425500	2.03198000	2.16482000	-0.06021600	-0.22274200	0.16152700
3199	31.98000000	-0.64591900	-0.03672700	0.04915300	-0.21572800	0.12637000	0.44381400	0.69123700	0.10085500	1.93056100	0.74810400	-0.22425600	1.18891100	0.22843700	-0.05038500	0.44914600	0.38673000	-0.03405000	1.20828900	-1.15528300	2.15169700	2.53394900	-0.01638300	-0.17998300	0.12275400
3200	31.99000000	-0.67273600	-0.05098000	0.06468500	-0.21398500	0.18321700	0.43243000	0.66749700	0.19173800	2.19208600	0.83257600	-0.21703500	1.07399000	0.22579800	-0.05051100	0.50976100	0.42276700	0.01540900	1.12304000	-1.02188600	2.26421700	2.78789800	0.00430000	-0.15462400	0.09062000
3201	32	-0.67425200	-0.07329300	0.09145400	-0.19794600	0.25854500	0.40173900	0.58263400	0.28888400	2.45956800	0.93023700	-0.18155500	1.01564000	0.29051500	-0.02634400	0.55515400	0.42730300	0.07059200	0.99077800	-0.94348400	2.33364400	2.90387600	0.02003000	-0.12410100	0.07334800
3202	32.01000000	-0.65810500	-0.09465100	0.11674100	-0.17117900	0.32835800	0.39095000	0.51373600	0.40111200	2.66991400	1.06218000	-0.14013500	0.96623500	0.30108800	-0.01152100	0.64685100	0.41244900	0.07984300	0.80056600	-0.94104400	2.42214400	2.87976500	0.02082700	-0.11754500	0.07844800
3203	32.02000000	-0.63787400	-0.10391600	0.11971600	-0.13690200	0.37505000	0.36387700	0.44607800	0.48233900	2.83770400	1.20747400	-0.13080200	0.97054600	0.21679400	0.02070600	0.71688100	0.37610000	0.03494400	0.62648400	-0.99735500	2.56248400	2.74977600	0.00370900	-0.09102400	0.10001500
3204	32.03000000	-0.59833000	-0.12392800	0.13290900	-0.10904800	0.39914800	0.33137900	0.36165200	0.55476000	3.01863100	1.35656200	-0.11538700	0.93849800	0.12612900	-0.00217800	0.74144000	0.36075100	-0.03072300	0.52105000	-1.08077000	2.78825300	2.57192600	-0.04758600	-0.08926700	0.13476500
3205	32.04000000	-0.56219100	-0.15600100	0.15002300	-0.08643700	0.38264400	0.27360800	0.19965700	0.61645000	3.13657000	1.45973400	-0.09916000	0.93023500	0.05268000	-0.04609900	0.74122900	0.41324300	0.00050800	0.47555200	-1.11216500	3.06765100	2.32743800	-0.08311500	-0.09939400	0.18124900
3206	32.05000000	-0.49976200	-0.19328100	0.19163400	-0.06252500	0.34776200	0.20440700	-0.14610000	0.61161400	3.26758000	1.49980200	-0.11155200	0.91705200	0.05278000	-0.04860100	0.75355200	0.45739400	0.03099100	0.45536800	-1.07766500	3.26694200	2.00878300	-0.11153800	-0.11881200	0.20696100
3207	32.06000000	-0.44787900	-0.22586300	0.20012600	-0.02230600	0.28700200	0.14588200	-0.36420200	0.62359600	3.44771100	1.47670200	-0.09523800	0.87321300	0.08750000	-0.04670800	0.76278300	0.37968700	0.00913900	0.45158300	-1.09501000	3.42812400	1.71630400	-0.11218400	-0.12882400	0.21712500
3208	32.07000000	-0.43064600	-0.26283900	0.18696200	-0.01692800	0.21612700	0.09467700	-0.38460700	0.64124300	3.59701700	1.42274100	-0.04327600	0.83615200	0.10367400	-0.02677100	0.76757000	0.23493600	-0.00628900	0.48849500	-1.13211800	3.58593900	1.50183800	-0.07761900	-0.14682000	0.19149700
3209	32.08000000	-0.41060400	-0.28398000	0.16831200	-0.02834200	0.15489600	0.03334600	-0.24512600	0.66228100	3.71166900	1.33178300	0.00808700	0.83609900	0.11694300	0.01636600	0.74075200	0.10375100	0.00208500	0.53555100	-1.12778100	3.68876700	1.40167900	-0.07656600	-0.15582900	0.19283500
3210	32.09000000	-0.38419100	-0.28748400	0.17915200	-0.04131000	0.10793700	0.02430900	-0.03644500	0.69140900	3.80204500	1.17220200	0.05045700	0.73174300	0.15946100	0.03774300	0.69288500	0.02975300	0.01193100	0.59011900	-1.01521100	3.68224000	1.41854100	-0.06458600	-0.16602500	0.18794900
3211	32.10000000	-0.35756300	-0.27950600	0.17947700	-0.04768200	0.07453900	0.01858800	0.16328600	0.72192300	3.84611800	0.94062700	0.06521900	0.68554700	0.14230500	0.02371000	0.70786300	-0.02840500	0.01740700	0.66088000	-0.85429700	3.53946500	1.54240300	-0.05798600	-0.16639300	0.18646400
3212	32.11000000	-0.32813400	-0.27565000	0.17814000	-0.03714700	0.07300200	-0.00272100	0.38520900	0.75433000	3.80488800	0.67170300	0.02982800	0.55958400	0.18364900	0.02040900	0.68443700	-0.11204100	0.00465900	0.71120300	-0.67730000	3.33348100	1.77864100	-0.04770300	-0.16930100	0.18720500
3213	32.12000000	-0.29148700	-0.26351400	0.17828200	-0.02188600	0.10107200	-0.02376500	0.60973100	0.79692300	3.87854500	0.43346700	-0.01933800	0.43212000	0.15513000	0.01704500	0.64396000	-0.13308300	0.02079000	0.74246400	-0.53063900	3.14390100	2.10194300	-0.05635000	-0.18600500	0.19340600
3214	32.13000000	-0.26261300	-0.24473300	0.17899800	0.00584300	0.13568800	-0.04863500	0.93840000	0.87072500	3.84725200	0.27691400	-0.07779200	0.29889500	0.14961200	0.05916700	0.60953300	-0.13604600	0.02087600	0.76786800	-0.41749600	2.95927700	2.46006600	-0.03708700	-0.20147400	0.19005600
3215	32.14000000	-0.23692200	-0.21829200	0.18976600	0.03653400	0.16392600	-0.05948000	1.23717900	0.92476800	3.79321300	0.22701300	-0.12456100	0.20155100	0.09180900	0.07082100	0.60768100	-0.15795200	0.00502600	0.78224700	-0.30339100	2.79032600	2.81372800	-0.02159500	-0.23140800	0.18226900
3216	32.15000000	-0.20152100	-0.18408900	0.19922900	0.05646000	0.17385900	-0.06409700	1.51932900	1.02312100	3.76718700	0.21197700	-0.14799300	0.13636400	0.08031900	0.08968100	0.59731800	-0.14444900	-0.02449800	0.79229000	-0.10444900	2.65998400	3.09685700	-0.03858200	-0.24803300	0.18289900
3217	32.16000000	-0.18102800	-0.15536800	0.21315400	0.09067400	0.17233700	-0.07959400	1.80111200	1.17121900	3.64048000	0.16860100	-0.14146800	0.05877300	0.05704600	0.08463900	0.56453800	-0.16747700	-0.02778100	0.78731200	0.12674700	2.50956200	3.29461400	-0.05100700	-0.30159700	0.18522400
3218	32.17000000	-0.15387500	-0.12102500	0.22596800	0.15693300	0.15084800	-0.09629000	1.84544300	1.25836300	3.53451000	0.12443200	-0.11290500	0.00672600	0.10225200	0.10311000	0.56598300	-0.19861400	-0.04708500	0.81077900	0.24259900	2.29002000	3.37983100	-0.04873300	-0.34693700	0.20528700
3219	32.18000000	-0.11898600	-0.09116200	0.24888800	0.21166700	0.12855100	-0.11866700	1.71627300	1.31347300	3.41510200	0.11330800	-0.06623700	-0.03911400	0.14184900	0.11542800	0.59838200	-0.21474100	-0.06045800	0.80588800	0.25335300	2.04753900	3.32839300	-0.04760600	-0.39087600	0.21127200
3220	32.19000000	-0.08549100	-0.06409400	0.26756900	0.29333000	0.10085700	-0.13622800	1.51329500	1.35856000	3.24648000	0.10598600	-0.06440100	-0.03784500	0.18163800	0.13470700	0.63211400	-0.15603000	-0.03060500	0.78311600	0.18597500	1.78944200	3.15806400	-0.03082600	-0.43051800	0.22225100
3221	32.20000000	-0.06304500	-0.04996400	0.28219000	0.38135700	0.06989100	-0.11893800	1.16946600	1.28936000	3.09146900	0.21184600	-0.07139100	-0.10189400	0.23012000	0.14352100	0.64494500	-0.08925600	-0.02576500	0.77081200	-0.01920900	1.61381100	2.97200400	-0.02597000	-0.48124900	0.23137500
3222	32.21000000	-0.04771300	-0.04140000	0.29219100	0.42266900	0.07926400	-0.09973600	0.82938100	1.19508400	2.92122200	0.38032500	-0.04535200	-0.19186800	0.25770300	0.16792500	0.66373700	-0.05739300	-0.01903200	0.74043100	-0.40950400	1.55809600	2.84472700	-0.03762900	-0.53674400	0.24634500
3223	32.22000000	-0.02290000	-0.03899700	0.30038100	0.46050000	0.11673600	-0.09439700	0.35694100	1.12819500	2.66990300	0.44113800	-0.01400600	-0.18711200	0.26965400	0.16378400	0.70026300	0.01918500	0.01241700	0.69937900	-0.87071600	1.54727800	2.70664900	-0.03698800	-0.58407500	0.25130600
